<?xml version="1.0" standalone="no"?>
<!DOCTYPE svg PUBLIC "-//W3C//DTD SVG 20010904//EN"
 "http://www.w3.org/TR/2001/REC-SVG-20010904/DTD/svg10.dtd">
<svg version="1.0" xmlns="http://www.w3.org/2000/svg"
 width="171.000000pt" height="171.000000pt" viewBox="0 0 171.000000 171.000000"
 preserveAspectRatio="xMidYMid meet">
<metadata>
Created by potrace 1.14, written by Peter Selinger 2001-2017
</metadata>
<g transform="translate(0.000000,171.000000) scale(0.100000,-0.100000)"
fill="#000000" stroke="none">
<path d="M660 1646 c-43 -11 -45 -14 -52 -56 -3 -25 -7 -64 -7 -87 -1 -67 -21
-69 -108 -11 l-73 50 -38 -28 c-20 -15 -38 -28 -40 -29 -1 -1 9 -39 24 -85 22
-71 24 -85 12 -97 -12 -12 -23 -11 -79 2 -97 23 -106 21 -129 -26 -23 -45 -27
-35 46 -124 22 -27 39 -57 37 -66 -3 -12 -27 -21 -90 -32 -47 -9 -87 -17 -88
-19 -2 -2 -5 -25 -7 -52 l-3 -49 78 -39 c95 -48 98 -64 24 -107 -94 -54 -97
-59 -85 -112 l11 -47 51 -6 c28 -3 68 -6 88 -6 57 0 58 -25 2 -109 l-47 -71
28 -40 c15 -22 29 -40 31 -40 2 0 40 12 85 26 109 34 114 29 89 -84 l-18 -83
39 -24 c21 -14 42 -25 46 -25 5 0 37 25 72 55 82 69 95 65 111 -39 7 -40 15
-78 19 -83 3 -6 27 -13 52 -17 l47 -7 38 76 c36 69 73 104 81 78 2 -6 23 -39
47 -74 37 -55 47 -64 70 -61 69 7 74 14 81 106 9 109 19 113 108 51 36 -25 68
-45 73 -45 4 0 25 12 45 26 l37 25 -13 47 c-8 26 -19 64 -26 84 -10 30 -10 40
1 53 7 9 20 13 29 10 9 -4 47 -13 84 -20 l68 -13 25 39 c13 21 24 42 24 46 0
5 -25 35 -55 69 -73 83 -69 96 34 113 43 7 82 16 88 19 5 4 13 28 16 53 l6 46
-77 40 c-102 53 -103 65 -8 125 l74 46 -10 44 c-6 24 -13 45 -15 48 -2 2 -43
9 -91 15 -99 12 -110 24 -70 78 13 18 34 49 47 70 l23 38 -27 34 c-31 41 -37
42 -127 13 -63 -20 -70 -21 -84 -6 -13 13 -14 22 -5 49 5 19 13 57 17 84 l6
50 -42 24 c-47 26 -40 29 -126 -52 -60 -56 -79 -47 -94 46 -17 103 -22 109
-78 105 l-47 -3 -38 -72 c-47 -90 -63 -93 -106 -20 -53 91 -59 96 -111 83z
m315 -311 c209 -55 355 -244 355 -459 -1 -269 -208 -478 -475 -478 -138 0
-254 51 -347 150 -97 103 -132 202 -126 351 3 86 7 105 41 174 100 212 329
320 552 262z"/>
<path d="M739 1302 c-178 -47 -314 -208 -326 -389 -15 -217 104 -396 307 -463
53 -18 82 -21 155 -18 79 3 101 8 165 39 282 135 346 495 126 715 -118 117
-266 158 -427 116z m-21 -318 c-38 -97 -68 -177 -66 -178 2 -1 38 0 81 3 59 5
77 3 77 -7 0 -44 -35 -212 -44 -212 -6 0 -35 14 -64 30 -57 33 -102 87 -128
156 -22 58 -15 173 14 229 33 67 139 153 188 155 7 0 -20 -79 -58 -176z m344
99 c143 -149 105 -384 -75 -473 -51 -25 -74 -31 -114 -28 l-50 3 132 155 c73
85 132 156 130 158 -1 1 -50 6 -108 10 l-107 7 72 103 c40 56 75 102 78 102 3
0 22 -17 42 -37z"/>
</g>
</svg>
