<?xml version="1.0" standalone="no"?>
<!DOCTYPE svg PUBLIC "-//W3C//DTD SVG 20010904//EN"
 "http://www.w3.org/TR/2001/REC-SVG-20010904/DTD/svg10.dtd">
<svg version="1.0" xmlns="http://www.w3.org/2000/svg"
 width="624.000000pt" height="624.000000pt" viewBox="0 0 624.000000 624.000000"
 preserveAspectRatio="xMidYMid meet">
<metadata>
Created by potrace 1.14, written by Peter Selinger 2001-2017
</metadata>
<g transform="translate(0.000000,624.000000) scale(0.100000,-0.100000)"
fill="#000000" stroke="none">
<path d="M2839 5703 c-27 -68 -51 -153 -60 -213 -17 -121 -26 -164 -37 -168
-6 -2 -28 -15 -48 -28 -26 -18 -55 -27 -102 -31 l-66 -5 -93 99 c-58 59 -96
109 -100 126 -4 18 -24 43 -55 67 -63 50 -116 60 -184 32 -27 -11 -69 -27 -94
-35 -25 -8 -67 -24 -95 -35 -27 -11 -83 -33 -124 -49 -41 -16 -79 -36 -84 -45
-11 -17 9 -156 37 -254 7 -28 16 -82 17 -120 l4 -69 -50 -5 c-27 -3 -64 -14
-82 -23 -44 -23 -71 -21 -139 10 -67 31 -205 114 -247 149 -47 40 -121 27
-182 -33 -16 -16 -71 -63 -121 -105 -139 -117 -184 -164 -184 -191 0 -17 25
-51 78 -107 42 -45 83 -94 91 -109 8 -14 27 -42 42 -62 42 -54 38 -75 -30
-148 l-59 -63 -83 6 c-217 16 -287 24 -322 40 -30 13 -42 14 -60 5 -34 -17
-76 -67 -83 -97 -4 -15 -19 -45 -33 -67 -48 -72 -121 -234 -121 -267 0 -33 63
-88 100 -88 36 0 253 -128 264 -156 3 -9 6 -54 6 -100 0 -78 -2 -87 -25 -110
-24 -24 -31 -25 -83 -19 -45 5 -75 1 -143 -19 -66 -19 -107 -25 -176 -24 -49
1 -94 -2 -101 -6 -9 -5 -12 -75 -12 -266 0 -298 -13 -270 120 -268 62 1 94 -3
116 -15 20 -10 70 -19 138 -23 104 -7 107 -8 135 -39 22 -26 30 -47 35 -99 9
-77 3 -103 -26 -112 -12 -3 -64 -31 -117 -61 -52 -30 -113 -62 -135 -69 -48
-17 -80 -45 -96 -85 -10 -24 -9 -34 8 -62 10 -19 25 -50 31 -70 7 -20 16 -37
21 -37 5 0 14 -17 21 -37 6 -21 26 -60 43 -88 18 -27 40 -71 50 -98 21 -56 47
-67 115 -47 92 26 260 50 348 50 44 0 58 -5 87 -31 19 -16 46 -51 60 -75 24
-43 25 -48 11 -75 -23 -43 -57 -92 -103 -146 -23 -26 -62 -72 -87 -101 -25
-29 -45 -57 -45 -63 0 -14 130 -149 143 -149 6 0 33 -21 62 -47 162 -149 153
-143 210 -143 44 0 60 6 116 43 36 24 69 46 74 48 6 2 36 20 68 39 32 19 68
41 80 47 12 7 45 13 72 13 48 0 53 -4 118 -64 64 -61 67 -65 67 -110 0 -27 -8
-63 -20 -86 -11 -22 -20 -56 -20 -77 -1 -21 -7 -49 -15 -63 -8 -14 -14 -44
-15 -68 l0 -43 76 -34 c42 -19 85 -35 96 -35 11 0 50 -13 88 -30 38 -16 78
-30 90 -30 11 0 38 -11 58 -25 57 -39 114 -30 178 25 16 14 61 68 100 120 85
114 101 129 149 140 41 9 216 -9 226 -23 4 -5 9 -33 13 -61 3 -29 15 -78 26
-111 11 -32 20 -84 20 -115 0 -32 7 -74 15 -94 l15 -36 300 0 300 0 0 38 c1
20 7 48 15 62 8 14 14 43 15 65 0 23 9 53 20 70 13 19 20 47 20 78 0 62 23
107 54 107 13 0 43 9 67 19 34 15 55 17 91 12 55 -9 71 -21 143 -111 156 -192
212 -226 298 -176 24 14 50 26 58 26 29 0 195 55 220 73 14 10 46 21 70 24 24
3 52 10 62 15 20 10 23 53 5 95 -6 15 -14 51 -19 78 -4 28 -17 83 -29 124 -32
109 -26 128 62 180 67 40 76 43 130 39 42 -3 64 -10 81 -26 13 -12 52 -37 88
-55 35 -19 93 -50 127 -70 98 -57 123 -53 212 33 40 38 92 83 115 98 24 16 76
59 116 96 87 80 95 52 -73 259 -65 80 -118 151 -118 159 0 8 30 46 68 86 66
71 68 72 118 72 28 0 71 -7 95 -15 24 -9 53 -14 64 -11 11 3 56 -4 100 -16
158 -41 184 -37 209 40 9 26 27 63 40 82 12 19 28 52 35 72 7 20 21 48 31 61
22 28 50 98 57 143 4 27 -1 36 -48 77 -35 31 -75 54 -115 67 -35 12 -68 28
-74 36 -7 8 -17 14 -22 14 -6 0 -33 16 -60 36 l-50 37 7 86 c4 58 12 94 24
111 17 23 24 25 112 26 60 1 112 7 144 18 28 10 82 20 120 22 39 3 85 7 103
10 l32 5 -2 257 -3 257 -115 3 c-105 2 -117 4 -134 25 -17 20 -25 22 -122 20
-95 -3 -105 -1 -124 19 -11 12 -20 33 -20 47 0 14 -5 43 -11 65 -21 74 -9 95
92 159 50 31 99 57 110 57 32 0 158 89 165 116 4 15 -2 41 -15 69 -12 25 -21
51 -21 58 0 7 -11 28 -24 46 -13 18 -27 47 -30 66 -4 19 -22 57 -41 84 -18 28
-36 64 -40 81 -9 42 -37 54 -104 45 -31 -4 -83 -9 -116 -11 -33 -2 -87 -13
-120 -25 -33 -12 -83 -24 -111 -26 -47 -4 -55 -2 -89 29 -53 46 -95 106 -95
136 0 28 83 116 136 143 24 13 33 26 39 55 4 22 22 58 41 81 43 52 43 75 2
105 -18 12 -65 52 -104 89 -39 37 -88 76 -110 87 -21 11 -61 43 -89 71 -56 58
-74 62 -136 26 -24 -14 -51 -25 -61 -25 -9 0 -35 -16 -58 -35 -23 -19 -48 -35
-55 -35 -7 0 -37 -16 -66 -36 -74 -49 -140 -56 -188 -20 -19 14 -45 26 -57 26
-16 0 -28 12 -43 43 -26 53 -26 70 -2 123 11 23 22 76 26 118 4 42 11 79 16
82 21 13 7 52 -33 90 -51 47 -106 74 -153 74 -21 0 -44 9 -63 25 -19 16 -42
25 -65 25 -20 0 -46 9 -63 23 -23 18 -41 22 -92 21 -57 -1 -66 -4 -98 -35 -20
-19 -56 -63 -79 -99 -54 -80 -139 -168 -171 -176 -13 -3 -38 -1 -55 5 -18 6
-58 11 -90 11 -52 0 -60 3 -83 31 -20 24 -26 41 -26 80 0 27 -7 66 -15 86 -8
19 -15 58 -15 86 0 36 -7 63 -25 94 l-26 43 -280 0 -279 0 -11 -27z m626 -922
c273 -49 541 -137 740 -243 88 -47 236 -151 361 -253 60 -49 52 -41 150 -150
145 -161 279 -389 318 -539 9 -32 21 -65 28 -73 13 -16 21 -62 39 -218 22
-185 -5 -509 -49 -591 -6 -10 -20 -49 -32 -87 -53 -168 -194 -387 -349 -545
-185 -189 -334 -298 -559 -408 -179 -88 -460 -175 -622 -194 -36 -4 -85 -13
-110 -19 -58 -15 -487 -9 -585 8 -38 7 -108 21 -155 33 -47 11 -112 26 -145
33 -132 28 -430 158 -554 241 -24 16 -58 38 -75 48 -140 88 -367 312 -469 464
-76 113 -159 278 -187 372 -12 41 -28 92 -36 113 -8 20 -14 55 -14 76 0 21 -7
58 -15 81 -21 59 -21 316 0 384 8 27 15 64 15 83 0 48 73 260 126 366 87 171
238 372 369 488 76 67 213 174 261 204 99 59 176 105 179 105 2 0 32 13 67 29
194 88 492 180 592 182 22 0 61 7 86 14 59 17 524 14 625 -4z"/>
<path d="M2890 4616 c-63 -7 -122 -16 -130 -19 -8 -3 -49 -10 -90 -17 -169
-28 -442 -139 -609 -248 -31 -20 -66 -42 -78 -48 -70 -38 -279 -234 -356 -332
-94 -121 -196 -316 -234 -447 -54 -182 -56 -204 -50 -418 3 -111 10 -215 16
-232 5 -16 24 -77 41 -135 43 -141 132 -304 249 -454 42 -53 163 -174 221
-220 133 -107 282 -196 420 -253 184 -76 261 -102 365 -122 33 -7 80 -16 104
-22 151 -34 562 -37 700 -5 36 9 109 25 161 37 115 26 241 68 318 107 31 16
68 32 80 36 33 11 186 100 247 144 197 142 387 348 478 517 73 135 134 299
148 395 4 30 12 75 18 100 13 57 13 241 0 300 -5 25 -12 63 -15 85 -21 140
-108 353 -202 495 -122 184 -314 364 -518 488 -223 135 -507 234 -759 263
-142 16 -403 18 -525 5z m-170 -531 c10 -12 5 -30 -23 -97 -38 -90 -97 -239
-120 -303 -39 -111 -91 -242 -103 -260 -8 -11 -14 -26 -14 -35 0 -8 -11 -37
-25 -65 -13 -27 -25 -55 -25 -62 0 -6 -13 -40 -28 -75 -16 -34 -37 -88 -47
-118 -10 -30 -24 -64 -31 -75 -17 -24 -18 -75 -1 -76 6 0 120 0 253 1 222 1
242 0 263 -17 23 -18 23 -22 12 -79 -6 -32 -16 -88 -21 -124 -6 -36 -15 -84
-20 -108 -6 -23 -10 -59 -10 -80 -1 -20 -7 -55 -15 -77 -8 -22 -15 -55 -15
-74 0 -19 -6 -60 -14 -90 -8 -31 -17 -68 -20 -82 -3 -15 -13 -30 -22 -33 -21
-8 -241 98 -341 164 -198 133 -347 325 -419 541 -33 100 -34 108 -34 262 0
152 1 164 31 251 99 291 308 519 599 654 180 83 171 80 190 57z m1048 -77
c221 -126 347 -244 464 -435 70 -113 128 -315 128 -444 0 -73 -32 -252 -49
-273 -4 -6 -16 -34 -25 -62 -37 -114 -162 -285 -281 -384 -218 -182 -458 -284
-718 -305 -43 -3 -90 -11 -105 -16 -19 -8 -55 -7 -122 1 -114 14 -144 24 -133
44 7 13 251 269 453 477 36 36 148 153 250 259 102 106 215 222 253 259 63 61
84 100 55 101 -7 1 -180 1 -384 0 -203 0 -378 2 -387 6 -24 9 -21 37 6 71 13
15 69 96 124 178 55 83 124 184 152 225 29 41 91 132 138 203 62 91 92 127
106 127 11 0 44 -14 75 -32z"/>
</g>
</svg>
